<?xml version="1.0" encoding="UTF-8" standalone="no"?>
<svg
   aria-hidden="true"
   focusable="false"
   data-prefix="n"
   data-icon="notes"
   class="notes-icon"
   role="img"
   viewBox="0 0 384 512"
   version="1.1"
   id="svg4"
   sodipodi:docname="obsidian.svg"
   inkscape:version="1.1.1 (1:1.1+202109281949+c3084ef5ed)"
   xmlns:inkscape="http://www.inkscape.org/namespaces/inkscape"
   xmlns:sodipodi="http://sodipodi.sourceforge.net/DTD/sodipodi-0.dtd"
   xmlns="http://www.w3.org/2000/svg"
   xmlns:svg="http://www.w3.org/2000/svg">
  <defs
     id="defs8" />
  <sodipodi:namedview
     id="namedview6"
     pagecolor="#505050"
     bordercolor="#ffffff"
     borderopacity="1"
     inkscape:pageshadow="0"
     inkscape:pageopacity="0"
     inkscape:pagecheckerboard="1"
     showgrid="false"
     inkscape:zoom="1.4042969"
     inkscape:cx="191.91098"
     inkscape:cy="256"
     inkscape:window-width="1848"
     inkscape:window-height="1016"
     inkscape:window-x="72"
     inkscape:window-y="27"
     inkscape:window-maximized="1"
     inkscape:current-layer="svg4" />
  <path
     fill="currentColor"
     d="m 288,294 v 28 c 0,6.6 -5.4,12 -12,12 H 108 c -6.6,0 -12,-5.4 -12,-12 v -28 c 0,-6.6 5.4,-12 12,-12 h 168 c 6.6,0 12,5.4 12,12 z m -12,72 H 108 c -6.6,0 -12,5.4 -12,12 v 28 c 0,6.6 5.4,12 12,12 h 168 c 6.6,0 12,-5.4 12,-12 v -28 c 0,-6.6 -5.4,-12 -12,-12 z M 384,131.9 V 464 c 0,26.5 -21.5,48 -48,48 H 48 C 21.5,512 0,490.5 0,464 V 48 C 0,21.5 21.5,0 48,0 H 252.1 C 264.8,0 277,5.1 286,14.1 L 369.9,98 c 9,8.9 14.1,21.2 14.1,33.9 z M 266,41.9 V 118 h 76.1 z M 346,474 V 156 h -94 c -13.3,0 -24,-10.7 -24,-24 V 38 H 38 V 474 Z M 288.61474,212.64534 v 28 c 0,6.6 -5.4,12 -12,12 h -168 c -6.6,0 -12,-5.4 -12,-12 v -28 c 0,-6.6 5.4,-12 12,-12 h 168 c 6.6,0 12,5.4 12,12 z"
     id="path2"
     sodipodi:nodetypes="ssssssssssssssssssssssssssscsccccccssccccsssssssss" />
</svg>
